<svg width="41" height="45" viewBox="0 0 41 45" fill="none" xmlns="http://www.w3.org/2000/svg">
<circle cx="20" cy="20" r="20" fill="#FFE3D6"/>
<path d="M40.214 39.7076L36.0226 34.3189C37.3807 33.9131 38.554 33.0445 39.3385 31.864C40.3256 30.1578 39.8793 28.0755 39.4474 26.0641C39.1862 25.0309 39.03 23.9739 38.981 22.9093C39.0298 21.8438 39.186 20.7859 39.4474 19.7518C39.8765 17.739 40.3256 15.6581 39.3385 13.9547C38.3163 12.1885 36.2581 11.5348 34.2675 10.9039C33.2765 10.6308 32.3168 10.255 31.404 9.78248C30.5757 9.2452 29.8067 8.62181 29.1096 7.92266C27.6327 6.55191 25.9582 5 23.827 5C21.6958 5 20.0213 6.55191 18.5438 7.92197C17.8469 8.6213 17.078 9.24494 16.25 9.78248C15.3373 10.2541 14.3779 10.629 13.3873 10.9011C11.3966 11.5321 9.33837 12.1858 8.31616 13.9519C7.32908 15.6581 7.77544 17.7404 8.20733 19.7518C8.46847 20.7859 8.62449 21.8438 8.67297 22.9093C8.62423 23.9748 8.46804 25.0328 8.20664 26.0669C7.7775 28.0796 7.32839 30.1605 8.31547 31.864C9.10107 33.045 10.2756 33.9133 11.6349 34.3182L7.43998 39.7069C7.20647 40.0072 7.26063 40.44 7.56104 40.6735C7.70535 40.7857 7.88823 40.8359 8.06956 40.8131L12.9946 40.198L14.2104 44.4522C14.2816 44.7015 14.4869 44.8897 14.7415 44.9392C14.7846 44.9473 14.8284 44.9516 14.8723 44.9516C15.085 44.9517 15.2859 44.8536 15.4165 44.6857L19.8153 39.0277C20.8978 40.0815 22.3197 40.7163 23.827 40.8186C25.3343 40.7163 26.7562 40.0815 27.8387 39.0277L32.2375 44.6836C32.3677 44.8523 32.5686 44.9512 32.7817 44.9516C32.8256 44.9516 32.8694 44.9473 32.9125 44.9392C33.1671 44.8897 33.3724 44.7015 33.4436 44.4522L34.6594 40.1987L39.5845 40.8138C39.9619 40.8612 40.3063 40.5936 40.3537 40.2161C40.3764 40.0348 40.3262 39.8519 40.214 39.7076ZM15.1617 42.7687L14.1567 39.2516C14.0632 38.9253 13.746 38.7158 13.4093 38.7577L9.5519 39.2399L13.0091 34.7956L13.39 34.9175C14.3797 35.1899 15.3382 35.5647 16.25 36.0362C17.0783 36.5734 17.8474 37.1968 18.5444 37.896L18.7814 38.115L15.1617 42.7687ZM23.827 39.441C22.2358 39.441 20.8975 38.2011 19.4799 36.8869C18.7086 36.1163 17.8567 35.4312 16.9388 34.8431C15.9401 34.3203 14.8888 33.9047 13.8026 33.6032C11.9821 33.0253 10.2621 32.4798 9.50713 31.1752C8.78662 29.9291 9.15859 28.1926 9.55328 26.3534C9.83733 25.2256 10.004 24.0714 10.0506 22.9093C10.0043 21.7472 9.83785 20.5931 9.55397 19.4652C9.15928 17.6268 8.78731 15.8902 9.50782 14.6435C10.2655 13.3389 11.9827 12.7933 13.8033 12.2154C14.8893 11.9139 15.9403 11.4982 16.9388 10.9755C17.8565 10.3874 18.7082 9.70223 19.4792 8.93178C20.8975 7.61752 22.2358 6.37764 23.827 6.37764C25.4182 6.37764 26.7566 7.61752 28.1742 8.93178C28.9454 9.70232 29.7973 10.3874 30.7152 10.9755C31.7139 11.4983 32.7652 11.9139 33.8514 12.2154C35.672 12.7933 37.3919 13.3389 38.1469 14.6435C38.8674 15.8896 38.4954 17.6261 38.1007 19.4652C37.8167 20.5931 37.65 21.7472 37.6034 22.9093C37.6497 24.0714 37.8162 25.2256 38.1 26.3534C38.4947 28.1919 38.8667 29.9284 38.1462 31.1752C37.3885 32.4798 35.6713 33.0253 33.8507 33.6032C32.7647 33.9048 31.7137 34.3204 30.7152 34.8431C29.7975 35.4312 28.9458 36.1164 28.1748 36.8869C26.7566 38.2011 25.4182 39.441 23.827 39.441ZM34.2482 38.7577C33.9114 38.7158 33.5942 38.9253 33.5008 39.2516L32.4924 42.7687L28.8733 38.1157L29.1103 37.8967C29.8071 37.1973 30.576 36.5737 31.404 36.0362C32.3167 35.5646 33.2762 35.1897 34.2668 34.9175L34.6477 34.7956L38.1056 39.2399L34.2482 38.7577Z" fill="#EE5A14"/>
<path d="M23.8265 10.5105C16.9788 10.5105 11.4277 16.0616 11.4277 22.9093C11.4277 29.7569 16.9788 35.308 23.8265 35.308C30.6741 35.308 36.2252 29.7569 36.2252 22.9093C36.2173 16.0649 30.6709 10.5185 23.8265 10.5105ZM23.8265 33.9304C17.7397 33.9304 12.8054 28.996 12.8054 22.9093C12.8054 16.8225 17.7397 11.8881 23.8265 11.8881C29.9132 11.8881 34.8476 16.8225 34.8476 22.9093C34.8404 28.9931 29.9103 33.9231 23.8265 33.9304Z" fill="#EE5A14"/>
<path d="M31.7747 20.0323C31.5155 19.6762 31.1019 19.4655 30.6615 19.4654H26.4446L25.1358 15.4516C24.8983 14.7288 24.1197 14.3355 23.3969 14.573C22.9811 14.7097 22.6549 15.0358 22.5183 15.4516L21.213 19.4654H16.9926C16.2317 19.465 15.6146 20.0814 15.6143 20.8423C15.614 21.2832 15.8248 21.6974 16.1812 21.9568L19.5949 24.4366L18.291 28.4503C18.0558 29.1739 18.4518 29.9512 19.1753 30.1863C19.5949 30.3227 20.0543 30.2499 20.4112 29.9905L23.8271 27.5115L27.2415 29.9912C27.7225 30.3486 28.3807 30.3486 28.8616 29.9912C29.3498 29.6443 29.553 29.0185 29.3617 28.451L28.0578 24.4366L31.4716 21.9568C32.0868 21.5091 32.2225 20.6474 31.7747 20.0323ZM26.8427 23.6169C26.6011 23.7925 26.5001 24.1037 26.5927 24.3877L28.0516 28.8774L24.2321 26.1028C23.9907 25.9276 23.6641 25.9276 23.4227 26.1028L19.6032 28.8774L21.0614 24.3877C21.1537 24.1039 21.0528 23.7931 20.8114 23.6176L16.9926 20.843H21.7131C22.0115 20.843 22.2759 20.6508 22.3681 20.367L23.8271 15.8773L25.286 20.3664C25.3782 20.6501 25.6426 20.8423 25.941 20.8423L30.6615 20.843L26.8427 23.6169Z" fill="#EE5A14"/>
</svg>
