<svg width="46" height="44" viewBox="0 0 46 44" fill="none" xmlns="http://www.w3.org/2000/svg">
<circle cx="20" cy="20" r="20" fill="#FFE3D6"/>
<path d="M18.1887 33.1726C17.7684 33.1726 17.4272 33.5137 17.4272 33.934C17.4272 34.3543 17.7684 34.6955 18.1887 34.6955C18.609 34.6955 18.9501 34.3543 18.9501 33.934C18.9501 33.5137 18.609 33.1726 18.1887 33.1726Z" fill="#EE5A14"/>
<path d="M40.5854 19.4669L45.0724 14.98C45.2612 14.7912 45.3372 14.5174 45.273 14.2584C45.2089 13.9992 45.0136 13.7927 44.7586 13.714L33.8322 10.3417C32.8472 7.17561 29.9197 5 26.5643 5C23.4452 5 20.6557 6.90089 19.5011 9.7684L6.84525 13.7147C6.59086 13.794 6.39639 14.0007 6.33266 14.2595C6.26893 14.5182 6.34507 14.7916 6.53353 14.98L11.1385 19.585L8.23416 24.4258C8.1153 24.6238 8.09284 24.8651 8.17294 25.0817C8.25304 25.2984 8.42718 25.4669 8.64632 25.5399L12.8587 26.9439V38.6548C12.8587 38.9721 13.0556 39.2562 13.3528 39.3677C15.9285 40.3335 25.4984 43.9227 25.5498 43.9408C25.7009 43.9941 25.871 44.0013 26.037 43.9476C26.0392 43.9469 26.0414 43.9464 26.0437 43.9456L39.7492 39.3771C40.0601 39.2735 40.2699 38.9825 40.2699 38.6548V26.6304L44.7621 25.2187C45.0161 25.1389 45.21 24.9323 45.2734 24.6737C45.3368 24.4151 45.2606 24.1422 45.0723 23.9539L40.5854 19.4669ZM34.1785 12.6142C34.1785 12.4207 34.1704 12.2277 34.1558 12.0353L43.1021 14.7966L39.3028 18.5958L33.0951 16.5268C33.798 15.3518 34.1785 13.996 34.1785 12.6142ZM20.8024 10.6324C21.6477 8.17437 23.9632 6.52284 26.5643 6.52284C29.3664 6.52284 31.7967 8.41817 32.4743 11.1319C32.5947 11.6141 32.6557 12.1128 32.6557 12.6142C32.6557 14.0285 32.1863 15.354 31.2982 16.4481C30.135 17.8828 28.4095 18.7056 26.5643 18.7056C24.5697 18.7056 22.6988 17.7266 21.5593 16.086C20.8486 15.0652 20.4729 13.8646 20.4729 12.6142C20.4729 11.9342 20.5837 11.2674 20.8024 10.6324ZM8.50073 14.7936L19.0312 11.5101C18.9783 11.8739 18.9501 12.2424 18.9501 12.6141C18.9501 13.8401 19.2405 15.0275 19.7941 16.0989L12.303 18.5958L8.50073 14.7936ZM10.0284 24.3953L12.436 20.3825L24.6616 24.4577L22.2541 28.4705C20.9486 28.0354 11.4222 24.8599 10.0284 24.3953ZM25.0415 42.1246L14.3816 38.1272V27.4516C22.7686 30.2324 22.3591 30.1475 22.5926 30.1475C22.8544 30.1475 23.105 30.0121 23.2457 29.7778L25.0415 26.7846V42.1246ZM25.8029 23.2329L14.5052 19.4671L20.6571 17.4166C22.0969 19.1867 24.2644 20.2284 26.5643 20.2284C28.6919 20.2284 30.6914 19.3529 32.1297 17.8102L37.1006 19.467L25.8029 23.2329ZM38.7471 38.106L26.5643 42.1669V26.206L29.2636 29.5798C29.46 29.8252 29.7869 29.9247 30.0865 29.8306L38.7471 27.109V38.106ZM30.1272 28.2216L27.0796 24.4125L39.3028 20.3382L43.1072 24.1425L30.1272 28.2216Z" fill="#EE5A14"/>
<path d="M23.0247 34.8626L21.3313 34.2276C20.9375 34.08 20.4986 34.2795 20.3509 34.6732C20.2033 35.067 20.4028 35.5059 20.7965 35.6535L22.4899 36.2885C22.8845 36.4364 23.3228 36.236 23.4702 35.843C23.6179 35.4492 23.4184 35.0103 23.0247 34.8626Z" fill="#EE5A14"/>
<path d="M23.0248 38.1155L18.4563 36.4023C18.0626 36.2547 17.6237 36.4542 17.476 36.8479C17.3282 37.2416 17.5278 37.6806 17.9215 37.8282L22.4901 39.5414C22.5782 39.5745 22.6685 39.5902 22.7573 39.5902C23.0656 39.5902 23.3557 39.4016 23.4704 39.0958C23.6181 38.702 23.4186 38.2632 23.0248 38.1155Z" fill="#EE5A14"/>
<path d="M30.9099 9.79139C30.6126 9.49398 30.1304 9.49405 29.833 9.79139L25.8029 13.8216L24.8185 12.8372C24.5211 12.5398 24.039 12.5398 23.7416 12.8372C23.4442 13.1345 23.4442 13.6166 23.7416 13.914L25.2645 15.4368C25.5618 15.7341 26.044 15.7341 26.3414 15.4368L30.9099 10.8683C31.2072 10.5709 31.2072 10.0888 30.9099 9.79139Z" fill="#EE5A14"/>
</svg>
