<svg width="14" height="12" viewBox="0 0 14 12" fill="none" xmlns="http://www.w3.org/2000/svg">
<path d="M12.3335 3.33329L7.00016 6.66663L1.66683 3.33329V1.99996L7.00016 5.33329L12.3335 1.99996V3.33329ZM12.3335 0.666626H1.66683C0.926829 0.666626 0.333496 1.25996 0.333496 1.99996V9.99996C0.333496 10.3536 0.473972 10.6927 0.72402 10.9428C0.974069 11.1928 1.31321 11.3333 1.66683 11.3333H12.3335C12.6871 11.3333 13.0263 11.1928 13.2763 10.9428C13.5264 10.6927 13.6668 10.3536 13.6668 9.99996V1.99996C13.6668 1.64634 13.5264 1.3072 13.2763 1.05715C13.0263 0.807102 12.6871 0.666626 12.3335 0.666626Z" fill="#EE5A14"/>
</svg>
