<svg width="45" height="43" viewBox="0 0 45 43" fill="none" xmlns="http://www.w3.org/2000/svg">
<circle cx="20" cy="20" r="20" fill="#FFE3D6"/>
<path d="M18.1519 21.9293L18.1506 21.9529C18.0593 23.5519 18.955 25.0497 20.433 25.7679L20.4481 25.7753C20.9692 26.0245 21.3963 26.4355 21.6658 26.9465L21.6719 26.9576C22.4166 28.3756 23.9569 29.2352 25.599 29.149L25.6239 29.1477C26.2194 29.1143 26.8106 29.2679 27.3145 29.5872C28.7049 30.4569 30.4699 30.4569 31.8604 29.5872C32.3643 29.2679 32.9554 29.1143 33.5509 29.1477L33.5759 29.149C35.2152 29.2359 36.7576 28.3756 37.504 26.9552L37.5077 26.9475C37.7782 26.4351 38.2063 26.0235 38.7291 25.7739L38.7412 25.7679C40.2192 25.0494 41.1152 23.5519 41.0236 21.9526L41.0222 21.9303C40.9919 21.3672 41.1482 20.8097 41.4675 20.3445C42.3867 19.0039 42.3867 17.2362 41.4679 15.8953C41.1489 15.4305 40.9919 14.8734 41.0222 14.3102L41.0236 14.2866C41.1152 12.6873 40.2192 11.1898 38.7398 10.471L38.7264 10.4642C38.2063 10.2156 37.7802 9.80672 37.5104 9.29709L37.5027 9.28193C36.7576 7.86386 35.2152 7.0046 33.5759 7.0905L33.5506 7.09184C32.9554 7.12519 32.3643 6.97159 31.8607 6.65228H31.86C30.4696 5.78257 28.7046 5.78257 27.3141 6.65228C26.8102 6.97126 26.2191 7.12485 25.6236 7.09151L25.5986 7.09016C23.9589 7.00326 22.4169 7.86353 21.6722 9.28126L21.6665 9.2917C21.3967 9.80368 20.9692 10.215 20.4475 10.4646L20.4333 10.4713C18.9553 11.1894 18.0593 12.6873 18.1509 14.2866L18.1523 14.3088C18.1826 14.872 18.0263 15.4295 17.707 15.8943C16.7878 17.2352 16.7878 19.0033 17.707 20.3439C18.026 20.8087 18.1826 21.3661 18.1519 21.9293ZM18.8425 16.6778C19.3352 15.9603 19.5767 15.1 19.5296 14.231L19.5282 14.2074C19.4797 13.1478 20.0746 12.1635 21.0349 11.7132L21.0467 11.7075C21.8345 11.3302 22.4796 10.7091 22.8865 9.9364L22.8932 9.9236C23.388 8.98114 24.4244 8.40987 25.5252 8.46848L25.5495 8.46949C26.4303 8.519 27.3044 8.29198 28.0494 7.81974C28.9902 7.23129 30.184 7.23129 31.1247 7.81974C31.8698 8.29131 32.7439 8.51867 33.6244 8.46983L33.6486 8.46848C34.7548 8.41054 35.7862 8.98114 36.2796 9.9209L36.2887 9.93808C36.6956 10.7098 37.34 11.3299 38.1268 11.7068L38.1383 11.7125C39.1137 12.1868 39.7059 13.1659 39.6463 14.2078L39.6449 14.2324C39.5978 15.1014 39.8396 15.9613 40.3324 16.6788C40.9279 17.5475 40.9276 18.6927 40.3317 19.5611C39.8393 20.2788 39.5978 21.1391 39.6449 22.0081L39.6463 22.0314C39.7059 23.0732 39.1137 24.0527 38.1379 24.5273L38.1278 24.532C37.3393 24.91 36.6936 25.5318 36.2864 26.3058L36.2813 26.3159C35.7862 27.2584 34.7514 27.83 33.649 27.771L33.625 27.7697C32.7442 27.7205 31.8698 27.9479 31.1244 28.4198C30.184 29.0079 28.9902 29.0079 28.0498 28.4198C27.3721 27.9903 26.5859 27.7626 25.7836 27.7633C25.7058 27.7633 25.6276 27.7653 25.5495 27.7697L25.5252 27.7707C24.4389 27.8397 23.4113 27.2712 22.8922 26.3142L22.8851 26.3011C22.4789 25.5297 21.8349 24.91 21.0484 24.533L21.0356 24.5266C20.0598 24.0524 19.4676 23.0729 19.5276 22.0314L19.5289 22.0068C19.5757 21.1378 19.3339 20.2775 18.8414 19.5604C18.2463 18.6917 18.2466 17.5465 18.8425 16.6784V16.6778Z" fill="#EE5A14"/>
<path d="M25.1363 25.2512C25.4593 25.4529 25.8847 25.3542 26.0865 25.0312L34.2584 11.9399C34.3917 11.7307 34.4029 11.4659 34.287 11.2467C34.1711 11.0271 33.9461 10.8869 33.6982 10.8792C33.4503 10.8714 33.2172 10.9974 33.0879 11.2093L24.9163 24.3006C24.7145 24.624 24.8129 25.0494 25.1363 25.2512Z" fill="#EE5A14"/>
<path d="M25.8681 18.1538C27.5479 18.1538 28.9147 16.5953 28.9147 14.6797C28.9147 12.7641 27.5479 11.2059 25.8681 11.2059C24.1883 11.2059 22.8218 12.7641 22.8218 14.6797C22.8218 16.5953 24.1883 18.1538 25.8681 18.1538ZM25.8681 12.5856C26.7873 12.5856 27.5351 13.525 27.5351 14.6797C27.5351 15.8344 26.7873 16.7741 25.8681 16.7741C24.9492 16.7741 24.2014 15.834 24.2014 14.6797C24.2014 13.5254 24.9492 12.5856 25.8681 12.5856Z" fill="#EE5A14"/>
<path d="M30.2593 21.5604C30.2593 23.476 31.6258 25.0342 33.3056 25.0342C34.9854 25.0342 36.3522 23.4757 36.3522 21.5604C36.3522 19.6455 34.9857 18.0867 33.3059 18.0867C31.6258 18.0867 30.2593 19.6445 30.2593 21.5604ZM34.9726 21.5604C34.9726 22.7151 34.2248 23.6545 33.3056 23.6545C32.3867 23.6545 31.6389 22.7151 31.6389 21.5604C31.6389 20.4058 32.3867 19.4663 33.3056 19.4663C34.2248 19.4663 34.9726 20.4051 34.9726 21.5604Z" fill="#EE5A14"/>
<path d="M44.1395 33.0156C43.226 31.3944 41.2003 30.777 39.5381 31.613L34.1343 34.1662C33.3882 32.7788 31.957 31.8956 30.3819 31.8511L25.3934 31.7137C24.6036 31.6911 23.8285 31.4907 23.1262 31.1283L22.6186 30.8652C20.0196 29.5105 16.9218 29.5138 14.3254 30.874L14.3571 29.724C14.3675 29.3431 14.0674 29.0258 13.6865 29.0153L8.2163 28.8648C7.83535 28.8543 7.51839 29.1544 7.50794 29.5354L7.17751 41.5398C7.16707 41.9207 7.46719 42.238 7.84814 42.2485L13.3183 42.3991H13.3375C13.7111 42.3987 14.0166 42.1013 14.027 41.7281L14.0425 41.1538L15.4636 40.3929C16.0214 40.0928 16.6738 40.0213 17.2832 40.1938L25.769 42.5756C25.7838 42.5799 25.7986 42.5833 25.8138 42.5867C26.4272 42.715 27.0523 42.7793 27.6792 42.779C29.0063 42.7797 30.3179 42.4937 31.5241 41.9399C31.5538 41.9265 31.5824 41.911 31.6097 41.8935L43.9135 33.9344C44.2204 33.7364 44.3194 33.3332 44.1395 33.0156ZM8.5757 40.888L8.86808 30.2633L12.9592 30.3758L12.6665 41.0009L8.5757 40.888ZM30.9023 40.7071C29.4038 41.3835 27.73 41.5701 26.1193 41.2407L17.656 38.8657C16.7038 38.5962 15.6839 38.708 14.8125 39.1766L14.0863 39.5653L14.281 32.5009C16.5819 30.9703 19.5332 30.813 21.984 32.0899L22.4916 32.353C23.3788 32.8111 24.3577 33.0641 25.3557 33.0927L30.3442 33.2301C31.7454 33.2702 32.9355 34.2679 33.2197 35.6408L25.7892 35.4364C25.4083 35.4259 25.0913 35.7261 25.0809 36.107C25.0704 36.488 25.3705 36.8053 25.7515 36.8157L33.9517 37.0414H33.9712C34.3444 37.041 34.6499 36.7436 34.6604 36.3704C34.6688 36.0706 34.6462 35.7705 34.5937 35.4755L40.1353 32.8566L40.1514 32.8488C40.9376 32.4507 41.8885 32.5837 42.5349 33.1823L30.9023 40.7071Z" fill="#EE5A14"/>
</svg>
