<svg width="15" height="15" viewBox="0 0 15 15" fill="none" xmlns="http://www.w3.org/2000/svg">
<path d="M7.12394 0.00230474C5.92019 0.016836 3.33223 0.214649 1.88473 1.54262C0.808007 2.60949 0.43207 4.18684 0.388007 6.13731C0.351445 8.08074 0.307382 11.7304 3.82535 12.7242V14.2378C3.82535 14.2378 3.80332 14.8434 4.20363 14.9676C4.69676 15.1237 4.97754 14.6578 5.44629 14.1571L6.32051 13.1686C8.72754 13.3687 10.5711 12.9075 10.7835 12.839C11.2719 12.6829 14.023 12.3314 14.4725 8.68121C14.9338 4.91152 14.248 2.53637 13.01 1.46199H13.0025C12.6289 1.11793 11.1275 0.0238672 7.77316 0.0116797C7.77316 0.0116797 7.52426 -0.00519526 7.12394 0.00183599V0.00230474ZM7.16519 1.06215C7.50691 1.0598 7.71457 1.07434 7.71457 1.07434C10.5538 1.08184 11.9089 1.93637 12.2286 2.22418C13.2711 3.11762 13.8083 5.25887 13.415 8.40606C13.0414 11.4576 10.8102 11.6507 10.3972 11.7825C10.2214 11.8387 8.59769 12.239 6.55207 12.1073C6.55207 12.1073 5.02863 13.9457 4.55238 14.4192C4.47691 14.5021 4.38879 14.5265 4.33254 14.5143C4.25191 14.4946 4.22754 14.3948 4.23223 14.2579L4.24676 11.7459C1.26316 10.9209 1.43894 7.80793 1.47082 6.18184C1.50738 4.55574 1.81254 3.22543 2.72098 2.32449C3.94394 1.21871 6.14144 1.06965 7.16426 1.06215H7.16519ZM7.39019 2.68777C7.36564 2.68753 7.34128 2.69214 7.31851 2.70135C7.29575 2.71057 7.27503 2.72419 7.25756 2.74145C7.24009 2.7587 7.2262 2.77925 7.2167 2.80189C7.20721 2.82454 7.20229 2.84884 7.20223 2.8734C7.20223 2.9784 7.28754 3.06137 7.39019 3.06137C7.85496 3.05253 8.31688 3.13579 8.74931 3.30635C9.18174 3.47691 9.57613 3.73139 9.90973 4.05512C10.5908 4.71652 10.9227 5.60527 10.9354 6.76731C10.9354 6.86996 11.0183 6.95527 11.1233 6.95527V6.94777C11.1728 6.9479 11.2203 6.92846 11.2555 6.89369C11.2908 6.85891 11.3108 6.81163 11.3113 6.76215C11.334 6.21519 11.2453 5.66931 11.0506 5.1577C10.8558 4.64608 10.559 4.17941 10.1783 3.78606C9.43629 3.0609 8.49598 2.6873 7.39019 2.6873V2.68777ZM4.91941 3.11762C4.78673 3.09823 4.65141 3.12486 4.53598 3.19309H4.52613C4.25813 3.35018 4.0167 3.54874 3.81082 3.78137C3.63973 3.97918 3.54691 4.17934 3.52254 4.37199C3.50801 4.48684 3.51785 4.60168 3.55207 4.71137L3.56426 4.71887C3.75691 5.28512 4.00863 5.82981 4.31613 6.34262C4.71224 7.06307 5.1997 7.72935 5.76644 8.32496L5.78332 8.34934L5.81004 8.36902L5.82691 8.38871L5.8466 8.40559C6.44437 8.97399 7.11227 9.46373 7.8341 9.86293C8.6591 10.312 9.15972 10.5243 9.46019 10.6125V10.6171C9.54832 10.6439 9.62848 10.6561 9.7091 10.6561C9.96517 10.6373 10.2076 10.5333 10.3977 10.3607C10.6293 10.1548 10.8256 9.91239 10.9789 9.64309V9.6384C11.1229 9.36746 11.0741 9.11106 10.8664 8.93762C10.4506 8.5741 10.0009 8.25122 9.52347 7.9734C9.20379 7.79996 8.87894 7.90496 8.74722 8.08074L8.46644 8.43465C8.32254 8.61043 8.06098 8.58605 8.06098 8.58605L8.05347 8.59074C6.10301 8.09246 5.58269 6.11762 5.58269 6.11762C5.58269 6.11762 5.55832 5.84902 5.73879 5.71215L6.09035 5.42902C6.25863 5.29215 6.37582 4.96777 6.19535 4.64762C5.91944 4.16956 5.59727 3.71975 5.23348 3.30465C5.15394 3.20679 5.04237 3.14021 4.91848 3.11668L4.91941 3.11762ZM7.71457 3.67449C7.46566 3.67449 7.46566 4.05043 7.71691 4.05043C8.02642 4.05545 8.3319 4.12142 8.6159 4.24455C8.8999 4.36769 9.15685 4.54559 9.37207 4.76809C9.56839 4.98465 9.71925 5.23842 9.81571 5.51436C9.91218 5.79029 9.95227 6.08278 9.93363 6.37449C9.93449 6.42386 9.95464 6.47093 9.98977 6.50563C10.0249 6.54032 10.0722 6.55988 10.1216 6.56012L10.1291 6.56996C10.1788 6.56959 10.2264 6.54967 10.2616 6.5145C10.2968 6.47933 10.3167 6.43173 10.3171 6.38199C10.3339 5.63715 10.1024 5.01231 9.64816 4.51168C9.1916 4.01105 8.55457 3.73027 7.74129 3.67449H7.71457ZM8.02254 4.68512C7.76613 4.67762 7.75629 5.06106 8.01035 5.06855C8.62816 5.10043 8.92816 5.41262 8.96754 6.05481C8.96839 6.10355 8.9883 6.15003 9.02299 6.18428C9.05768 6.21854 9.10441 6.23785 9.15316 6.23809H9.16066C9.18573 6.23701 9.21033 6.23096 9.23303 6.22027C9.25573 6.20958 9.27607 6.19449 9.29287 6.17585C9.30967 6.15722 9.32259 6.13543 9.33088 6.11175C9.33916 6.08807 9.34265 6.06297 9.34113 6.03793C9.29707 5.20074 8.84051 4.72918 8.03004 4.68559H8.02254V4.68512Z" fill="#EE5A14"/>
</svg>
