<svg width="10" height="14" viewBox="0 0 10 14" fill="none" xmlns="http://www.w3.org/2000/svg">
<path d="M5.00016 6.66671C4.55814 6.66671 4.13421 6.49111 3.82165 6.17855C3.50909 5.86599 3.3335 5.44207 3.3335 5.00004C3.3335 4.55801 3.50909 4.13409 3.82165 3.82153C4.13421 3.50897 4.55814 3.33337 5.00016 3.33337C5.44219 3.33337 5.86611 3.50897 6.17867 3.82153C6.49123 4.13409 6.66683 4.55801 6.66683 5.00004C6.66683 5.21891 6.62372 5.43564 6.53996 5.63785C6.4562 5.84006 6.33344 6.02379 6.17867 6.17855C6.02391 6.33332 5.84018 6.45608 5.63797 6.53984C5.43576 6.6236 5.21903 6.66671 5.00016 6.66671ZM5.00016 0.333374C3.76249 0.333374 2.5755 0.825039 1.70033 1.70021C0.825161 2.57538 0.333496 3.76236 0.333496 5.00004C0.333496 8.50004 5.00016 13.6667 5.00016 13.6667C5.00016 13.6667 9.66683 8.50004 9.66683 5.00004C9.66683 3.76236 9.17516 2.57538 8.29999 1.70021C7.42482 0.825039 6.23784 0.333374 5.00016 0.333374Z" fill="#EE5A14"/>
</svg>
