<svg width="16" height="13" viewBox="0 0 16 13" fill="none" xmlns="http://www.w3.org/2000/svg">
<path d="M8 2.17128e-06C4.97333 2.17128e-06 2.22667 1.18667 0.193333 3.11334C0.0733333 3.23334 0 3.4 0 3.58667C0 3.77334 0.0733333 3.94 0.193333 4.06L1.84667 5.71334C1.97154 5.8368 2.13971 5.9066 2.31531 5.90785C2.49091 5.90909 2.66005 5.84169 2.78667 5.72C3.31333 5.22667 3.91333 4.81334 4.56 4.48667C4.78 4.38 4.93333 4.15334 4.93333 3.88667V1.82C5.9 1.5 6.92667 1.33334 8 1.33334C9.06 1.33334 10.0933 1.5 11.06 1.81334V3.88C11.06 4.14 11.2133 4.37334 11.4333 4.48C12.0867 4.80667 12.6667 5.22667 13.2133 5.71334C13.3333 5.83334 13.5 5.9 13.6667 5.9C13.8667 5.9 14.0333 5.82667 14.1533 5.70667L15.8067 4.05334C15.9267 3.93334 16 3.76667 16 3.58C16 3.39334 15.92 3.23334 15.8 3.11334C13.696 1.11291 10.9032 -0.00179565 8 2.17128e-06ZM6 2.66667V4.66667C6 4.66667 2 8 2 10V12.6667H14V10C14 8 10 4.66667 10 4.66667V2.66667H8.66667V4H7.33333V2.66667H6ZM8 6C8.70724 6 9.38552 6.28095 9.88562 6.78105C10.3857 7.28115 10.6667 7.95942 10.6667 8.66667C10.6667 9.37391 10.3857 10.0522 9.88562 10.5523C9.38552 11.0524 8.70724 11.3333 8 11.3333C7.29276 11.3333 6.61448 11.0524 6.11438 10.5523C5.61428 10.0522 5.33333 9.37391 5.33333 8.66667C5.33333 7.95942 5.61428 7.28115 6.11438 6.78105C6.61448 6.28095 7.29276 6 8 6ZM8 7C7.55797 7 7.13405 7.1756 6.82149 7.48816C6.50893 7.80072 6.33333 8.22464 6.33333 8.66667C6.33333 9.1087 6.50893 9.53262 6.82149 9.84518C7.13405 10.1577 7.55797 10.3333 8 10.3333C8.44203 10.3333 8.86595 10.1577 9.17851 9.84518C9.49107 9.53262 9.66667 9.1087 9.66667 8.66667C9.66667 8.22464 9.49107 7.80072 9.17851 7.48816C8.86595 7.1756 8.44203 7 8 7Z" fill="#EE5A14"/>
</svg>
