<svg width="12" height="12" viewBox="0 0 12 12" fill="none" xmlns="http://www.w3.org/2000/svg">
<path d="M7.616 12C7.51333 11.664 7.39667 11.3187 7.266 10.964C7.14467 10.6093 7.02333 10.2547 6.902 9.9H3.122C3.00067 10.2547 2.87467 10.6093 2.744 10.964C2.62267 11.3187 2.51067 11.664 2.408 12H0.14C0.504 10.9547 0.849333 9.98867 1.176 9.102C1.50267 8.21533 1.82 7.38 2.128 6.596C2.44533 5.812 2.75333 5.07 3.052 4.37C3.36 3.66067 3.67733 2.97 4.004 2.298H6.09C6.40733 2.97 6.72 3.66067 7.028 4.37C7.336 5.07 7.644 5.812 7.952 6.596C8.26933 7.38 8.59133 8.21533 8.918 9.102C9.24467 9.98867 9.59 10.9547 9.954 12H7.616ZM4.998 4.496C4.95133 4.636 4.88133 4.82733 4.788 5.07C4.69467 5.31267 4.58733 5.59267 4.466 5.91C4.34467 6.22733 4.20933 6.57733 4.06 6.96C3.92 7.34267 3.77533 7.744 3.626 8.164H6.384C6.23467 7.744 6.09 7.34267 5.95 6.96C5.81 6.57733 5.67467 6.22733 5.544 5.91C5.42267 5.59267 5.31533 5.31267 5.222 5.07C5.12867 4.82733 5.054 4.636 4.998 4.496ZM8.66184 1.668C9.05384 1.50933 9.43184 1.332 9.79584 1.136C10.1692 0.930666 10.4912 0.720666 10.7618 0.505999H11.9798V6.092H10.3838V2.312C10.1972 2.41467 10.0058 2.51267 9.80984 2.606C9.61384 2.69 9.37584 2.78333 9.09584 2.886L8.66184 1.668Z" fill="#EE5A14"/>
</svg>
