<svg width="50" height="44" viewBox="0 0 50 44" fill="none" xmlns="http://www.w3.org/2000/svg">
<circle cx="20" cy="20" r="20" fill="#FFE3D6"/>
<path d="M46.1098 27.4193L44.9751 22.8471C45.2853 22.7807 45.5181 22.5034 45.5181 22.1712V21.4341C45.5181 19.8335 44.2254 18.5313 42.6365 18.5313H37.4681V17.0108C37.4681 16.2232 36.8321 15.5825 36.0502 15.5825H26.4399L32.28 13.2293C32.6318 13.0875 32.8029 12.6853 32.6622 12.3309C32.5215 11.9765 32.1224 11.804 31.7703 11.9459L26.9885 13.8726C28.4456 12.9308 29.8873 11.8943 30.4361 11.1694C31.5046 9.75825 31.234 7.73453 29.8331 6.65818C28.4322 5.58175 26.4233 5.85444 25.3548 7.26563C24.5741 8.29688 23.544 11.1945 22.8774 13.2364C22.2107 11.1947 21.1806 8.29688 20.3999 7.26563C19.3315 5.85444 17.3225 5.58193 15.9216 6.65818C14.5207 7.73444 14.2502 9.75816 15.3186 11.1694C15.8674 11.8944 17.309 12.9308 18.7662 13.8726L13.9844 11.9459C13.6324 11.8039 13.2332 11.9765 13.0925 12.3309C12.9518 12.6853 13.1229 13.0875 13.4747 13.2293L19.3148 15.5825H9.70453C8.92266 15.5825 8.28661 16.2232 8.28661 17.0108V29.5433C8.28661 29.925 8.59376 30.2345 8.97272 30.2345C9.35159 30.2345 9.65883 29.9251 9.65883 29.5433V17.0108C9.65883 16.9854 9.67928 16.9648 9.70453 16.9648H36.0501C36.0753 16.9648 36.0958 16.9854 36.0958 17.0108V29.5435C36.0958 29.9252 36.4029 30.2347 36.7819 30.2347C37.1608 30.2347 37.468 29.9252 37.468 29.5435V28.76H45.5611C45.5619 28.76 45.5625 28.7602 45.5633 28.7602C45.564 28.7602 45.5647 28.7601 45.5655 28.7601C46.5613 28.7609 47.4069 29.4194 47.6972 30.3266H45.5638C45.1849 30.3266 44.8777 30.636 44.8777 31.0178V32.4922C44.8777 33.6863 45.842 34.6577 47.0274 34.6577H47.805V37.6986H46.011C45.4217 35.9846 43.8041 34.7498 41.9046 34.7498C40.0052 34.7498 38.3875 35.9845 37.7983 37.6986H37.4679V32.4921C37.4679 32.1104 37.1608 31.8009 36.7818 31.8009C36.4029 31.8009 36.0957 32.1103 36.0957 32.4921V37.6985H21.861C21.2717 35.9845 19.6541 34.7497 17.7546 34.7497C15.8551 34.7497 14.2375 35.9844 13.6482 37.6985H9.70453C9.67928 37.6985 9.65883 37.6779 9.65883 37.6525V36.132H12.6319C13.0107 36.132 13.318 35.8226 13.318 35.4408C13.318 35.0591 13.0108 34.7497 12.6319 34.7497H6.04548C5.66661 34.7497 5.35938 35.0591 5.35938 35.4408C5.35938 35.8226 5.66653 36.132 6.04548 36.132H8.2867V37.6525C8.2867 38.4401 8.92274 39.0808 9.70462 39.0808H13.4106C13.4105 39.0962 13.4094 39.1115 13.4094 39.1269C13.4094 41.5404 15.3587 43.504 17.7546 43.504C20.1505 43.504 22.0998 41.5404 22.0998 39.1269C22.0998 39.1114 22.0987 39.0962 22.0986 39.0808H37.5606C37.5604 39.0962 37.5594 39.1115 37.5594 39.1269C37.5594 41.5404 39.5087 43.504 41.9046 43.504C44.3004 43.504 46.2497 41.5404 46.2497 39.1269C46.2497 39.1114 46.2487 39.0962 46.2485 39.0808H48.491C48.8699 39.0808 49.1771 38.7714 49.1771 38.3897V31.0177C49.1772 29.1974 47.8441 27.6851 46.1098 27.4193ZM20.1565 13.1187C17.4501 11.4245 16.6473 10.6451 16.4097 10.3311C15.8001 9.52599 15.9545 8.37137 16.7538 7.75729C17.0833 7.50417 17.4717 7.38184 17.8572 7.38184C18.4068 7.38184 18.9506 7.63064 19.3089 8.10394C19.9726 8.98054 21.012 11.9309 21.6982 14.057C21.2351 13.7823 20.7028 13.4608 20.1565 13.1187ZM24.0567 14.0569C24.7429 11.9309 25.7823 8.98062 26.4459 8.10386C27.0555 7.29873 28.2016 7.14329 29.0009 7.75729C29.8002 8.37137 29.9545 9.52599 29.345 10.3311C29.1074 10.645 28.3046 11.4245 25.5984 13.1186C25.0522 13.4607 24.5198 13.7822 24.0567 14.0569ZM37.4681 19.9135H42.6365C43.4688 19.9135 44.1459 20.5956 44.1459 21.434V21.48H37.4681V19.9135ZM37.4681 27.3777V22.8623H43.5645L44.6851 27.3777H37.4681ZM17.7546 42.1218C16.1153 42.1218 14.7816 40.7783 14.7816 39.1269C14.7816 37.4755 16.1153 36.132 17.7546 36.132C19.3939 36.132 20.7276 37.4755 20.7276 39.1269C20.7276 40.7783 19.3939 42.1218 17.7546 42.1218ZM41.9047 42.1218C40.2654 42.1218 38.9317 40.7783 38.9317 39.1269C38.9317 37.4755 40.2654 36.132 41.9047 36.132C43.5441 36.132 44.8778 37.4755 44.8778 39.1269C44.8778 40.7783 43.5441 42.1218 41.9047 42.1218ZM47.8051 33.2753H47.0275C46.5987 33.2753 46.2499 32.9239 46.2499 32.492V31.7087H47.805V33.2753H47.8051Z" fill="#EE5A14"/>
<path d="M17.7548 37.6984C16.973 37.6984 16.3369 38.3391 16.3369 39.1267C16.3369 39.9143 16.973 40.5551 17.7548 40.5551C18.5367 40.5551 19.1727 39.9143 19.1727 39.1267C19.1727 38.3391 18.5367 37.6984 17.7548 37.6984Z" fill="#EE5A14"/>
<path d="M41.9042 37.6984C41.1224 37.6984 40.4863 38.3391 40.4863 39.1267C40.4863 39.9143 41.1224 40.5551 41.9042 40.5551C42.6861 40.5551 43.3222 39.9143 43.3222 39.1267C43.3222 38.3391 42.6861 37.6984 41.9042 37.6984Z" fill="#EE5A14"/>
<path d="M33.8545 34.7495H23.609C23.2301 34.7495 22.9229 35.0589 22.9229 35.4407C22.9229 35.8224 23.23 36.1318 23.609 36.1318H33.8545C34.2333 36.1318 34.5406 35.8224 34.5406 35.4407C34.5406 35.0589 34.2334 34.7495 33.8545 34.7495Z" fill="#EE5A14"/>
<path d="M16.2903 31.801H7.50837C7.1295 31.801 6.82227 32.1104 6.82227 32.4922C6.82227 32.8739 7.12942 33.1833 7.50837 33.1833H16.2903C16.6691 33.1833 16.9764 32.8739 16.9764 32.4922C16.9764 32.1104 16.6691 31.801 16.2903 31.801Z" fill="#EE5A14"/>
<path d="M16.2912 21.48H13.3638C12.985 21.48 12.6777 21.7894 12.6777 22.1711V28.0687C12.6777 28.4504 12.9849 28.7599 13.3638 28.7599C13.7428 28.7599 14.05 28.4505 14.05 28.0687V25.8111H15.5594C15.9382 25.8111 16.2455 25.5016 16.2455 25.1199C16.2455 24.7382 15.9383 24.4287 15.5594 24.4287H14.05V22.8623H16.2912C16.67 22.8623 16.9773 22.5529 16.9773 22.1711C16.9772 21.7895 16.67 21.48 16.2912 21.48Z" fill="#EE5A14"/>
<path d="M21.6898 26.1351C22.3764 25.6821 22.8312 24.9008 22.8312 24.0142C22.8312 22.6168 21.7027 21.48 20.3155 21.48H18.4859C18.107 21.48 17.7998 21.7894 17.7998 22.1711V28.0687C17.7998 28.4504 18.107 28.7599 18.4859 28.7599C18.8649 28.7599 19.172 28.4505 19.172 28.0687V26.5482H20.3142L21.5741 28.452C21.7064 28.6518 21.9238 28.7599 22.1456 28.7599C22.2764 28.7599 22.4086 28.7223 22.5255 28.6437C22.8408 28.432 22.926 28.0029 22.7157 27.6854L21.6898 26.1351ZM20.3155 25.166H19.172V22.8623H20.3155C20.946 22.8623 21.4589 23.379 21.4589 24.0142C21.4589 24.6494 20.946 25.166 20.3155 25.166Z" fill="#EE5A14"/>
<path d="M27.2687 27.3777H25.0275V25.8088C25.0426 25.8098 25.0578 25.8111 25.0732 25.8111H26.5368C26.9157 25.8111 27.2229 25.5017 27.2229 25.12C27.2229 24.7382 26.9158 24.4288 26.5368 24.4288H25.0732C25.0577 24.4288 25.0426 24.4301 25.0275 24.4312V22.8623H27.2687C27.6476 22.8623 27.9548 22.5529 27.9548 22.1711C27.9548 21.7895 27.6477 21.48 27.2687 21.48H24.3414C23.9625 21.48 23.6553 21.7894 23.6553 22.1711V28.0687C23.6553 28.4504 23.9624 28.7599 24.3414 28.7599H27.2687C27.6476 28.7599 27.9548 28.4505 27.9548 28.0687C27.9548 27.687 27.6476 27.3777 27.2687 27.3777Z" fill="#EE5A14"/>
<path d="M32.3908 27.3777H30.1496V25.8111H30.9272C31.306 25.8111 31.6133 25.5017 31.6133 25.12C31.6133 24.7382 31.3061 24.4288 30.9272 24.4288H30.1496V22.8623H32.3908C32.7696 22.8623 33.0769 22.5529 33.0769 22.1711C33.0769 21.7895 32.7697 21.48 32.3908 21.48H29.4635C29.0846 21.48 28.7773 21.7894 28.7773 22.1711V28.0687C28.7773 28.4504 29.0845 28.7599 29.4635 28.7599H32.3908C32.7696 28.7599 33.0769 28.4505 33.0769 28.0687C33.0769 27.687 32.7696 27.3777 32.3908 27.3777Z" fill="#EE5A14"/>
</svg>
